<svg id="Layer_1" data-name="Layer 1" xmlns="http://www.w3.org/2000/svg" viewBox="0 0 369.46 100.88"><title>logotype-tablet</title><path d="M119.86,11.43C127,9,127.59,0,120.51,0c-2,0-4.28,1.37-5.88,4.17l-9.58,16.56a13.91,13.91,0,0,1-1.37,2c-2.47-3.38-1.75-8.45,1.71-10.67L104,10.27c-7.46,4.75-5.27,18.47,7.18,18.47C121.78,28.74,126.7,16,119.86,11.43ZM111.07,26a10.26,10.26,0,0,1-5.13-1.23,18.49,18.49,0,0,0,1.77-2.53l6-10.37,1,.1C123,13.72,119.69,26,111.07,26ZM114.9,9.79l2.87-4.93c2.6-4.48,5.92-1.85,4.14,1.5C120.54,8.93,118.52,9.72,114.9,9.79Z" transform="translate(0)" style="fill:#fff"/><path d="M259.21,19l-.24.28a16.76,16.76,0,0,1-6.5,5c.58-.92,1-1.91,1.47-2.67l3.94-6.74c3.32-5.64-2.06-7.52-5.68-4.27l.72-1.23h-3.56L243.79,19h0l-.24.27a7.66,7.66,0,0,1-5.37,2.63l3.35-5.78c2.16-3.73.18-7.25-3.18-7.25-2.74,0-4.86,1.09-6.91,4.65l-1.74,3.05L228.23,19l-.19.22c-2.56,3-5.06,5.34-6.63,5.34-.79,0-1.24-.55-.42-1.95l5.14-9c1.54-2.7.07-4.65-1.92-4.65-1.54,0-3.18.85-5,2.7l5.68-9.89h-3.56L211.45,19l-.21.23A22,22,0,0,1,207,23.1c1.13-3.39.89-8.59,3.08-13.14l-2.67-1.44c-1.47,2-4.69,6.67-7.9,10.44h0l-.24.27c-2.57,3-5.07,5.34-6.64,5.34-.79,0-1.23-.55-.41-1.95l3.56-6.23c1.23-2.16.65-3.42-.52-4.82l-2-2.4a1.39,1.39,0,0,1,.2-2l-1.84-2c-2,1.81-2.19,3.83-.93,5.47L191,11c-1.57,2.23-3.69,5.24-6,8l-.24.27c-2.56,3-5.85,5.34-8.35,5.34-2.19,0-3.49-1.37-1.84-4.24l.34-.62c2.29,1,6.6.51,9.27-4.11l.51-.89c1.92-3.28.07-5.74-2.84-5.74a7.53,7.53,0,0,0-6.67,4.1L171.7,19l-.21.24a7.63,7.63,0,0,1-5.37,2.64l3.35-5.79A8.66,8.66,0,0,0,170.81,12a3,3,0,0,0-3.22-3.18,4.16,4.16,0,0,0-2.33.79l4.52-7.84h-3.63L156.18,19l-.19.21c-2.57,3-5.06,5.34-6.64,5.34-.78,0-1.23-.55-.41-1.95l3.56-6.23c1.23-2.15.65-3.42-.51-4.82l-2-2.4a1.39,1.39,0,0,1,.21-2l-1.85-2c-2,1.81-2.19,3.83-.92,5.48l.31.41c-1.58,2.22-3.7,5.23-6,8l-.24.27c-2.57,3-5.07,5.34-6.64,5.34-.79,0-1.23-.55-.41-1.95l5.75-10.06h-2A3.7,3.7,0,0,0,134.44,9c-1.92,0-4.59,1.5-6.09,4.1l-5,8.62c-1.5,2.64-.44,5.07,2.43,5.07,1.44,0,3.22-.93,4.93-2.33.17,1.37,1.27,2.33,3.08,2.33,2.94,0,6.33-3.15,9.27-6.57h0c1.71-2,3.05-3.76,5.89-7.63l.47.58a1.74,1.74,0,0,1,.21,2l-3.76,6.53c-1.51,2.64-.45,5.07,2.42,5.07,2.07,0,4.35-1.55,6.54-3.65v0c0,2.43,1.81,3.8,4.11,3.8A7.87,7.87,0,0,0,165,23.61a6.87,6.87,0,0,0,.79,0,10.4,10.4,0,0,0,4.72-1.4c-.18,2.57,1.68,4.52,4.82,4.52,4,0,8-3.15,11-6.57,1.71-2,3-3.76,5.88-7.63l.48.58a1.76,1.76,0,0,1,.2,2l-3.76,6.54c-1.51,2.63-.44,5.06,2.43,5.06s6.33-3.15,9.27-6.57h0c2-2.32,3.8-4.82,5.06-6.5-1.4,3.7-.65,10.33-4,10.33a2,2,0,0,1-1.68-1.3l-2.22,1.17a3.88,3.88,0,0,0,3.9,2.87,8.24,8.24,0,0,0,1-.07l.1,0a12.67,12.67,0,0,0,5.47-2.36l-1.23,2.12h3.6l5.4-9.41c5.48-6.87,7.9-6,6.36-3.35l-4.61,8c-1.51,2.63-.45,5.06,2.43,5.06,2.06,0,4.35-1.55,6.55-3.66,0,4.53,6.29,5.42,10.14.55h.79a10,10,0,0,0,3.81-.94L235.16,34h3.59l10.64-18.51c4-5.41,6.47-3.42,5.55-1.82l-5.37,9.31c-.59,1-1.92,1.34-2.57,0l-2,1a3.88,3.88,0,0,0,3.9,2.87h.21c5.16-.1,8.55-3.18,11.46-6.57A2.29,2.29,0,0,0,259.21,19Zm-81-5c2.06-3.52,5.68-2.94,3.56.75l-.51.89c-1.71,2.91-4,2.84-5.34,2.36Zm-45.6,5.61c-2.16,3.39-4.28,5-5.75,5-.79,0-1.23-.54-.41-1.94l5-8.66c1.92-3.32,5.71-2.46,4,.75Zm26.79,4.86a1.33,1.33,0,0,1-1.44-1.37,3.93,3.93,0,0,1,.62-1.85L159.82,19a5.26,5.26,0,0,0,2.26,3.7A3.34,3.34,0,0,1,159.38,24.43ZM163.1,21a3.84,3.84,0,0,1-1.5-3.21c0-2.54,2.46-6.68,4.48-6.68a1.36,1.36,0,0,1,1.34,1.54,4.37,4.37,0,0,1-.69,2.13Zm73.08-1.78H236a2.1,2.1,0,0,0-2.08,2.12,2.28,2.28,0,0,0,.34,1.2l0,.07c-1.67,2.87-5.74,2.33-3.62-1.37l2.7-4.69,1.71-2.9c2.5-4.25,5.92-2.57,3.77,1.13Z" transform="translate(0)" style="fill:#fff"/><rect x="1.68" y="69.23" width="8.08" height="8.08" transform="translate(-50.13 25.5) rotate(-44.99)" style="fill:#fff"/><rect x="353.67" y="69.22" width="8.08" height="8.08" transform="translate(52.93 274.34) rotate(-44.99)" style="fill:#fff"/><polygon points="46.8 73.48 48.88 73.48 48.88 65.16 52.15 65.16 52.15 63.07 46.8 63.07 46.8 73.48" style="fill:#636466"/><path d="M61.69,75V62.32a4.59,4.59,0,0,0-2.56-4.07,4.49,4.49,0,0,1,.48,2V72.93A4.5,4.5,0,0,1,58,76.44a5.19,5.19,0,0,1,1.66,3.69V94.24a4.63,4.63,0,0,1-4.56,4.55H41.49v2.09H57.13a4.63,4.63,0,0,0,4.56-4.56V82.21A5.21,5.21,0,0,0,60,78.52,4.46,4.46,0,0,0,61.69,75Z" transform="translate(0)" style="fill:#636466"/><polygon points="46.8 91.34 48.88 91.34 48.88 82.95 52.15 82.95 52.15 80.87 46.8 80.87 46.8 91.34" style="fill:#636466"/><polygon points="79.81 91.34 81.89 91.34 81.89 65.16 85.16 65.16 85.16 63.07 79.81 63.07 79.81 91.34" style="fill:#636466"/><path d="M92.14,58.25a4.46,4.46,0,0,1,.48,2v34a4.62,4.62,0,0,1-4.56,4.56H77a4.43,4.43,0,0,1-2-.48,4.57,4.57,0,0,0,4.07,2.56H90.15a4.62,4.62,0,0,0,4.55-4.55v-34A4.59,4.59,0,0,0,92.14,58.25Z" transform="translate(0)" style="fill:#636466"/><polygon points="112.82 73.48 114.9 73.48 114.9 65.16 118.18 65.16 118.18 63.07 112.82 63.07 112.82 73.48" style="fill:#636466"/><path d="M125.07,82.52a4.46,4.46,0,0,0,2.58-4.06V62.32a4.55,4.55,0,0,0-2.56-4.09,4.62,4.62,0,0,1,.48,2V76.37A4.48,4.48,0,0,1,123,80.44l3.08,18.35H120.4l.35,2.08h7.4Z" transform="translate(0)" style="fill:#636466"/><polygon points="115.65 80.87 112.82 80.87 112.82 98.79 107.51 98.79 107.51 100.88 114.9 100.88 114.9 82.95 116 82.95 115.65 80.87" style="fill:#636466"/><polygon points="144.84 91.34 146.93 91.34 146.93 65.16 150.2 65.16 150.2 63.07 144.84 63.07 144.84 91.34" style="fill:#636466"/><path d="M157.18,58.25a4.46,4.46,0,0,1,.48,2v34a4.63,4.63,0,0,1-4.56,4.56H142a4.42,4.42,0,0,1-2-.48,4.54,4.54,0,0,0,4.07,2.56h11.08a4.62,4.62,0,0,0,4.56-4.55v-34A4.59,4.59,0,0,0,157.18,58.25Z" transform="translate(0)" style="fill:#636466"/><polygon points="177.85 91.34 179.94 91.34 179.94 65.16 183.21 65.16 183.21 63.07 177.85 63.07 177.85 91.34" style="fill:#636466"/><path d="M190.19,58.25a4.46,4.46,0,0,1,.48,2v34a4.63,4.63,0,0,1-4.56,4.56H172.55v2.08h15.64a4.62,4.62,0,0,0,4.56-4.55v-34A4.59,4.59,0,0,0,190.19,58.25Z" transform="translate(0)" style="fill:#636466"/><polygon points="211.24 57.77 211.24 98.79 205.93 98.79 205.93 100.88 213.32 100.88 213.32 57.77 211.24 57.77" style="fill:#636466"/><polygon points="244.12 57.77 244.12 98.79 238.22 98.79 238.81 100.88 246.21 100.88 246.21 57.77 244.12 57.77" style="fill:#636466"/><polygon points="231.31 79.95 231.31 98.79 226.01 98.79 226.01 100.88 233.4 100.88 233.4 87.19 231.31 79.95" style="fill:#636466"/><path d="M263.58,83h6.11V80.87H261.5a4.44,4.44,0,0,1-2-.48A4.52,4.52,0,0,0,263.58,83Z" transform="translate(0)" style="fill:#636466"/><polygon points="266.41 85.72 264.32 86.21 264.32 91.34 266.41 91.34 266.41 85.72" style="fill:#636466"/><path d="M276.66,58.25a4.6,4.6,0,0,1,.48,2V69l-5.37,1.25v2.56l7.45-1.72V62.32A4.59,4.59,0,0,0,276.66,58.25Z" transform="translate(0)" style="fill:#636466"/><path d="M276.66,76.05a4.56,4.56,0,0,1,.48,2V94.23a4.63,4.63,0,0,1-4.56,4.56H261.49a4.42,4.42,0,0,1-2-.48,4.54,4.54,0,0,0,4.07,2.56h11.08a4.63,4.63,0,0,0,4.56-4.55V80.12A4.59,4.59,0,0,0,276.66,76.05Z" transform="translate(0)" style="fill:#636466"/><polygon points="264.32 63.07 264.32 73.48 266.41 73.48 266.41 65.16 269.68 65.16 269.68 63.07 264.32 63.07" style="fill:#636466"/><polygon points="298.01 80.87 297.33 80.87 297.33 98.79 292.03 98.79 292.03 100.88 299.42 100.88 299.42 85.35 298.01 80.87" style="fill:#636466"/><polygon points="313.15 57.77 310.4 57.77 304.17 77.18 311.07 98.79 305.06 98.79 305.64 100.63 305.7 100.88 313.15 100.88 306.25 79.26 313.15 57.77" style="fill:#636466"/><polygon points="330.53 57.77 330.53 98.79 325.23 98.79 325.23 100.88 332.61 100.88 332.61 57.77 330.53 57.77" style="fill:#636466"/><rect x="361.52" y="79.65" width="8.08" height="2.95" transform="translate(49.72 282.28) rotate(-45.01)" style="fill:#636466"/><rect x="9.53" y="79.66" width="8.08" height="2.95" transform="translate(-53.4 33.36) rotate(-45)" style="fill:#636466"/><path d="M55.65,69A4.5,4.5,0,0,1,54,72.48a5.19,5.19,0,0,1,1.66,3.69V90.28a4.62,4.62,0,0,1-4.56,4.55H35.45V51.72H51.09a4.59,4.59,0,0,1,4.56,4.56V69ZM48.2,59.11H42.84V69.52H48.2Zm0,17.8H42.84V87.38H48.2Z" transform="translate(0)" style="fill:#fff"/><path d="M84.1,51.72a4.59,4.59,0,0,1,4.56,4.56v34a4.62,4.62,0,0,1-4.56,4.55H73a4.58,4.58,0,0,1-4.56-4.55v-34A4.55,4.55,0,0,1,73,51.72Zm-2.89,7.39H75.85V87.38h5.36Z" transform="translate(0)" style="fill:#fff"/><path d="M114.71,94.83l-3-17.92h-2.83V94.83h-7.39V51.72h15.64a4.54,4.54,0,0,1,4.5,4.56V72.42A4.47,4.47,0,0,1,119,76.48l3.08,18.35Zm-.49-35.72h-5.36V69.52h5.36Z" transform="translate(0)" style="fill:#fff"/><path d="M149.14,51.72a4.59,4.59,0,0,1,4.56,4.56v34a4.62,4.62,0,0,1-4.56,4.55H138.06a4.58,4.58,0,0,1-4.56-4.55v-34a4.55,4.55,0,0,1,4.56-4.56Zm-2.89,7.39h-5.36V87.38h5.36Z" transform="translate(0)" style="fill:#fff"/><path d="M182.15,51.72a4.59,4.59,0,0,1,4.56,4.56v34a4.62,4.62,0,0,1-4.56,4.55H166.51V51.72Zm-2.89,7.39H173.9V87.38h5.36Z" transform="translate(0)" style="fill:#fff"/><path d="M199.89,51.72h7.39V94.83h-7.39Z" transform="translate(0)" style="fill:#fff"/><path d="M240.17,51.72V94.83h-7.39L227.36,76V94.83H220V51.72h7.32l5.42,17.68V51.72Z" transform="translate(0)" style="fill:#fff"/><path d="M268.62,69.52a4.59,4.59,0,0,1,4.56,4.56v16.2a4.63,4.63,0,0,1-4.56,4.55H257.54A4.58,4.58,0,0,1,253,90.28V81.41l7.39-1.73v7.7h5.36V76.91h-8.19A4.55,4.55,0,0,1,253,72.35V56.28a4.55,4.55,0,0,1,4.56-4.56h11.08a4.6,4.6,0,0,1,4.56,4.56V65l-7.45,1.72V59.11h-5.36V69.52Z" transform="translate(0)" style="fill:#fff"/><path d="M300.22,73.22l6.89,21.61h-7.45l-.06-.24-5.54-17.68h-.68V94.83H286V51.72h7.39v17.8h.55l5.67-17.8h7.51Z" transform="translate(0)" style="fill:#fff"/><path d="M319.19,51.72h7.39V94.83h-7.39Z" transform="translate(0)" style="fill:#fff"/></svg>